<svg width="32" height="33" viewBox="0 0 32 33" fill="none" xmlns="http://www.w3.org/2000/svg">
<path d="M25.4814 28.5H6.51844C6.20411 28.5 5.33325 28.5 5.33325 28.5C5.33325 28.5 5.33325 27.6183 5.33325 27.3V5.7C5.33325 5.38174 5.33325 4.5 5.33325 4.5C5.33325 4.5 6.20411 4.5 6.51844 4.5H25.4814C25.7957 4.5 26.6666 4.50008 26.6666 4.50008C26.6666 4.50008 26.6666 5.38174 26.6666 5.7V27.3C26.6666 27.6183 26.6666 28.5 26.6666 28.5C26.6666 28.5 25.7957 28.5 25.4814 28.5ZM24.2962 26.1V6.9H7.70362V26.1H24.2962ZM12.4444 9.3V11.7C12.4444 12.6548 12.819 13.5705 13.4858 14.2456C14.1526 14.9207 15.0569 15.3 15.9999 15.3C16.9429 15.3 17.8473 14.9207 18.5141 14.2456C19.1809 13.5705 19.5555 12.6548 19.5555 11.7V9.3H21.9258V11.7C21.9258 13.2913 21.3015 14.8174 20.1902 15.9426C19.0789 17.0679 17.5716 17.7 15.9999 17.7C14.4283 17.7 12.921 17.0679 11.8097 15.9426C10.6983 14.8174 10.074 13.2913 10.074 11.7V9.3H12.4444Z" fill="#0E0E14"/>
</svg>
