<svg width="125" height="65" viewBox="0 0 125 65" fill="none" xmlns="http://www.w3.org/2000/svg">
<path d="M19.8712 40.8918V50H16V28.8433H19.8712V30.633C20.9077 29.1416 22.3991 28.3959 24.3452 28.3959C26.2491 28.3959 27.8145 29.0137 29.0414 30.2495C30.4164 31.6344 31.1039 33.4667 31.1039 35.7464C31.1039 38.09 30.3847 39.9543 28.9462 41.3392C27.677 42.5323 26.1222 43.1289 24.2818 43.1289C22.4414 43.1289 20.9712 42.3832 19.8712 40.8918ZM23.2981 31.8474C22.3039 31.8474 21.4683 32.1564 20.7914 32.7742C19.9241 33.5199 19.4904 34.5107 19.4904 35.7464C19.4904 37.0034 19.9135 38.0048 20.7596 38.7505C21.4577 39.3684 22.3039 39.6773 23.2981 39.6773C24.3347 39.6773 25.202 39.3471 25.9001 38.6866C26.7039 37.9409 27.1058 36.9608 27.1058 35.7464C27.1058 34.5533 26.7145 33.5838 25.9318 32.8381C25.2126 32.1777 24.3347 31.8474 23.2981 31.8474Z" fill="#0E0E14"/>
<path d="M44.0284 38.2392L47.5822 38.8144C47.4341 39.1979 47.2332 39.5814 46.9793 39.965C46.7466 40.3272 46.3764 40.7852 45.8688 41.3392C45.3611 41.8718 44.6736 42.3086 43.8062 42.6495C42.9389 42.9691 41.9447 43.1289 40.8235 43.1289C38.6658 43.1289 36.91 42.479 35.5562 41.1794C34.1177 39.8158 33.3985 38.0155 33.3985 35.7784C33.3985 33.5625 34.0966 31.7515 35.4927 30.3454C36.8043 29.0457 38.5283 28.3959 40.6649 28.3959C42.9918 28.3959 44.7793 29.1522 46.0274 30.6649C47.1274 31.9859 47.6774 33.7969 47.6774 36.0979V36.4175H37.3966C37.3966 37.355 37.6187 38.1326 38.0629 38.7505C38.6976 39.6241 39.6178 40.0608 40.8235 40.0608C42.262 40.0608 43.3303 39.4536 44.0284 38.2392ZM37.5235 33.9247H44.0284C43.8803 33.0299 43.4889 32.3481 42.8543 31.8794C42.2408 31.3893 41.5428 31.1443 40.7601 31.1443C39.9985 31.1443 39.3004 31.3893 38.6658 31.8794C38.0524 32.3694 37.6716 33.0512 37.5235 33.9247Z" fill="#0E0E14"/>
<path d="M50.6748 42.6814V28.8433H54.5459V30.9206C55.0113 30.0258 55.5825 29.3866 56.2594 29.0031C56.894 28.5983 57.6556 28.3959 58.544 28.3959C59.0517 28.3959 59.6017 28.5024 60.194 28.7155L59.6863 32.3588C59.1998 32.0179 58.5969 31.8474 57.8777 31.8474C56.7565 31.8474 55.8998 32.2203 55.3075 32.966C54.7998 33.6052 54.5459 34.6278 54.5459 36.034V42.6814H50.6748Z" fill="#0E0E14"/>
<path d="M71.3591 38.2392L74.913 38.8144C74.7649 39.1979 74.564 39.5814 74.3101 39.965C74.0774 40.3272 73.7072 40.7852 73.1995 41.3392C72.6918 41.8718 72.0043 42.3086 71.137 42.6495C70.2697 42.9691 69.2755 43.1289 68.1543 43.1289C65.9966 43.1289 64.2408 42.479 62.887 41.1794C61.4485 39.8158 60.7293 38.0155 60.7293 35.7784C60.7293 33.5625 61.4273 31.7515 62.8235 30.3454C64.135 29.0457 65.8591 28.3959 67.9956 28.3959C70.3226 28.3959 72.1101 29.1522 73.3582 30.6649C74.4582 31.9859 75.0082 33.7969 75.0082 36.0979V36.4175H64.7274C64.7274 37.355 64.9495 38.1326 65.3937 38.7505C66.0283 39.6241 66.9485 40.0608 68.1543 40.0608C69.5928 40.0608 70.661 39.4536 71.3591 38.2392ZM64.8543 33.9247H71.3591C71.2111 33.0299 70.8197 32.3481 70.1851 31.8794C69.5716 31.3893 68.8735 31.1443 68.0908 31.1443C67.3293 31.1443 66.6312 31.3893 65.9966 31.8794C65.3831 32.3694 65.0024 33.0512 64.8543 33.9247Z" fill="#0E0E14"/>
<path d="M85.494 32.167H81.9402V42.6814H78.069V32.167H76.6094V28.8433H78.069V25.0402C78.069 22.7818 78.6719 21.1519 79.8777 20.1505C80.7873 19.3835 81.919 19 83.2729 19C84.0767 19 84.8171 19.1598 85.494 19.4794V23.0268C84.9863 22.6433 84.4046 22.4515 83.7488 22.4515C83.1354 22.4515 82.67 22.6859 82.3527 23.1546C82.0777 23.6021 81.9402 24.401 81.9402 25.5515V28.8433H85.494V32.167Z" fill="#0E0E14"/>
<path d="M97.8054 30.633V28.8433H101.677V42.6814H97.8054V40.8918C96.7689 42.3832 95.3621 43.1289 93.5852 43.1289C91.5121 43.1289 89.8198 42.4151 88.5082 40.9876C87.2178 39.5601 86.5726 37.8131 86.5726 35.7464C86.5726 33.6584 87.2072 31.9113 88.4765 30.5052C89.7457 29.099 91.3852 28.3959 93.3948 28.3959C95.3833 28.3959 96.8535 29.1416 97.8054 30.633ZM97.1073 32.966C96.3881 32.2203 95.4785 31.8474 94.3784 31.8474C93.2784 31.8474 92.3688 32.2203 91.6496 32.966C90.9304 33.7117 90.5707 34.6385 90.5707 35.7464C90.5707 36.8543 90.9304 37.7918 91.6496 38.5588C92.3688 39.3045 93.2784 39.6773 94.3784 39.6773C95.4785 39.6773 96.3881 39.3045 97.1073 38.5588C97.8266 37.7918 98.1862 36.8543 98.1862 35.7464C98.1862 34.6385 97.8266 33.7117 97.1073 32.966Z" fill="#0E0E14"/>
<path d="M105.748 42.3938C105.283 41.9038 105.05 41.3072 105.05 40.6041C105.05 39.901 105.283 39.3151 105.748 38.8464C106.235 38.3564 106.827 38.1113 107.525 38.1113C108.223 38.1113 108.805 38.3564 109.27 38.8464C109.757 39.3151 110 39.901 110 40.6041C110 41.3072 109.757 41.9038 109.27 42.3938C108.805 42.8625 108.223 43.0969 107.525 43.0969C106.827 43.0969 106.235 42.8625 105.748 42.3938Z" fill="#0E0E14"/>
<path fill-rule="evenodd" clip-rule="evenodd" d="M118 7H7V58H118V7ZM0 0V65H125V0H0Z" fill="#0E0E14"/>
</svg>
