<svg width="32" height="32" viewBox="0 0 32 32" fill="none" xmlns="http://www.w3.org/2000/svg">
<path d="M4 16C4 21.123 7.211 25.497 11.73 27.218C11.62 26.281 11.503 24.736 11.755 23.652C11.972 22.72 13.156 17.714 13.156 17.714C13.156 17.714 12.799 16.999 12.799 15.94C12.799 14.28 13.761 13.04 14.96 13.04C15.98 13.04 16.472 13.805 16.472 14.722C16.472 15.747 15.819 17.279 15.482 18.7C15.201 19.889 16.079 20.859 17.251 20.859C19.374 20.859 21.007 18.62 21.007 15.388C21.007 12.527 18.951 10.528 16.016 10.528C12.618 10.528 10.623 13.077 10.623 15.712C10.623 16.739 11.018 17.839 11.512 18.438C11.5541 18.4832 11.5839 18.5386 11.5984 18.5986C11.6129 18.6587 11.6118 18.7215 11.595 18.781C11.504 19.159 11.302 19.97 11.263 20.136C11.21 20.354 11.09 20.401 10.863 20.295C9.371 19.601 8.439 17.42 8.439 15.668C8.439 11.899 11.176 8.439 16.331 8.439C20.475 8.439 23.696 11.392 23.696 15.338C23.696 19.455 21.101 22.769 17.497 22.769C16.286 22.769 15.149 22.139 14.759 21.396C14.759 21.396 14.16 23.678 14.015 24.236C13.733 25.32 12.951 26.692 12.466 27.471C13.584 27.815 14.77 28 16 28C22.627 28 28 22.627 28 16C28 9.373 22.627 4 16 4C9.373 4 4 9.373 4 16Z" fill="white"/>
</svg>
