<svg width="32" height="33" viewBox="0 0 32 33" fill="none" xmlns="http://www.w3.org/2000/svg">
<path d="M14.263 25.026C16.5401 25.0255 18.7515 24.2632 20.5452 22.8605L26.1847 28.5L27.9987 26.686L22.3592 21.0465C23.7627 19.2526 24.5254 17.0407 24.526 14.763C24.526 9.10423 19.9217 4.5 14.263 4.5C8.60423 4.5 4 9.10423 4 14.763C4 20.4217 8.60423 25.026 14.263 25.026ZM14.263 7.06575C18.508 7.06575 21.9602 10.518 21.9602 14.763C21.9602 19.008 18.508 22.4602 14.263 22.4602C10.018 22.4602 6.56575 19.008 6.56575 14.763C6.56575 10.518 10.018 7.06575 14.263 7.06575Z" fill="#0E0E14"/>
</svg>
