<svg width="32" height="32" viewBox="0 0 32 32" fill="none" xmlns="http://www.w3.org/2000/svg">
<path d="M27.499 10.4678C27.3596 9.9924 27.0938 9.55937 26.7275 9.21066C26.3612 8.86195 25.9067 8.60938 25.4081 8.47741C23.5363 8.00002 16.0114 8.00002 16.0114 8.00002C16.0114 8.00002 8.50088 7.98857 6.60954 8.47741C6.11169 8.60996 5.65809 8.8628 5.29261 9.21147C4.92712 9.56015 4.66209 9.99288 4.52315 10.4678C4.16769 12.2959 3.99262 14.1518 4.00024 16.0111C3.99677 17.8614 4.17181 19.7082 4.52315 21.5279C4.66254 22.0031 4.92764 22.4362 5.29301 22.7855C5.65837 23.1348 6.11172 23.3886 6.60954 23.5226C8.48137 24 16.0114 24 16.0114 24C16.0114 24 23.5175 24 25.4081 23.5226C25.9067 23.3892 26.361 23.1356 26.7271 22.7863C27.0933 22.4369 27.3591 22.0036 27.499 21.5279C27.8433 19.7092 28.0114 17.8598 27.9994 16.0111C28.0114 14.1502 27.8471 12.2979 27.499 10.4678ZM13.6077 19.4373V12.5699L19.8714 16.0111L13.6077 19.4373Z" fill="white"/>
</svg>
